<svg width="64" height="64" viewBox="0 0 64 64" fill="none" xmlns="http://www.w3.org/2000/svg">
<rect x="19.4958" y="6.00681" width="32" height="48" rx="4" transform="rotate(8 19.4958 6.00681)" fill="white" stroke="#DEDEDE"/>
<path d="M18.1782 10.4371C18.4091 8.24006 20.3774 6.64621 22.5744 6.87713L46.4429 9.38581C48.64 9.61673 50.2338 11.585 50.0029 13.782L45.8218 53.5629C45.5908 55.7599 43.6226 57.3538 41.4256 57.1229L17.557 54.6142C15.36 54.3833 13.7661 52.415 13.9971 50.218L18.1782 10.4371Z" fill="white"/>
<path d="M18.5963 6.45901L50.421 9.80393L18.5963 6.45901ZM45.8218 53.5629C45.5331 56.3092 43.0728 58.3015 40.3265 58.0129L18.447 55.7132C15.7007 55.4246 13.7084 52.9643 13.9971 50.218C13.8239 51.8658 15.4645 53.3887 17.6616 53.6197L41.5301 56.1283C43.7271 56.3593 45.6486 55.2107 45.8218 53.5629ZM13.5789 54.1961L18.5963 6.45901L13.5789 54.1961ZM50.421 9.80393L45.4036 57.541L50.421 9.80393Z" fill="#DEDEDE"/>
<rect x="17.7131" y="6.94235" width="32" height="48" rx="4" transform="rotate(4 17.7131 6.94235)" fill="white" stroke="#BEBEBE"/>
<path d="M16.7078 11.4538C16.7849 9.24598 18.6371 7.51871 20.8449 7.59581L44.8303 8.43339C47.0381 8.51049 48.7654 10.3628 48.6883 12.5706L47.2923 52.5462C47.2152 54.754 45.3629 56.4813 43.1551 56.4042L19.1697 55.5666C16.9619 55.4895 15.2347 53.6372 15.3118 51.4294L16.7078 11.4538Z" fill="white"/>
<path d="M16.8474 7.45621L48.8279 8.57299L16.8474 7.45621ZM47.2923 52.5462C47.1959 55.3059 44.8806 57.465 42.1208 57.3686L20.1342 56.6009C17.3745 56.5045 15.2154 54.1891 15.3118 51.4294C15.2539 53.0852 16.9968 54.4901 19.2046 54.5672L43.19 55.4048C45.3978 55.4819 47.2345 54.202 47.2923 52.5462ZM15.1722 55.427L16.8474 7.45621L15.1722 55.427ZM48.8279 8.57299L47.1527 56.5438L48.8279 8.57299Z" fill="#BEBEBE"/>
<rect x="16" y="8" width="32" height="48" rx="4" stroke="#808080"/>
<path d="M16 12C16 9.79086 17.7909 8 20 8H44C46.2091 8 48 9.79086 48 12V52C48 54.2091 46.2091 56 44 56H20C17.7909 56 16 54.2091 16 52V12Z" fill="white"/>
<path d="M16 8H48H16ZM48 52C48 54.7614 45.7614 57 43 57H21C18.2386 57 16 54.7614 16 52C16 53.6569 17.7909 55 20 55H44C46.2091 55 48 53.6569 48 52ZM16 56V8V56ZM48 8V56V8Z" fill="#808080"/>
<path d="M32.7812 42.2188C31.4062 42.2188 30.1146 41.9479 28.9062 41.4062C27.6979 40.8646 26.6354 40.125 25.7188 39.1875C24.8021 38.2292 24.0833 37.1354 23.5625 35.9062C23.0417 34.6562 22.7812 33.3333 22.7812 31.9375C22.7812 30.4583 23.0417 29.0729 23.5625 27.7812C24.0833 26.4688 24.8021 25.3229 25.7188 24.3438C26.6562 23.3438 27.75 22.5625 29 22C30.2708 21.4375 31.6354 21.1562 33.0938 21.1562C34.2396 21.1562 35.4062 21.2396 36.5938 21.4062C37.7812 21.5521 39 21.7708 40.25 22.0625C40.375 22.1042 40.5104 22.8021 40.6562 24.1562C40.7396 24.9271 40.8021 25.5312 40.8438 25.9688C40.9062 26.4062 40.8854 26.7188 40.7812 26.9062C40.6771 27.0729 40.4271 27.1562 40.0312 27.1562L39.5312 27.0625C39.4271 26.6875 39.2604 26.2917 39.0312 25.875C38.8021 25.4583 38.4479 25.0104 37.9688 24.5312C37.5104 24.0521 36.8646 23.6667 36.0312 23.375C35.1979 23.0625 34.2708 22.9062 33.25 22.9062C29.5208 22.9062 27.6562 25.6979 27.6562 31.2812C27.6562 33.0104 27.9062 34.5833 28.4062 36C28.9271 37.3958 29.6771 38.5 30.6562 39.3125C31.6562 40.125 32.8542 40.5312 34.25 40.5312C35.7917 40.5312 37.125 39.9688 38.25 38.8438C38.5833 38.5104 38.8333 38.1354 39 37.7188C39.1875 37.2812 39.3229 36.8958 39.4062 36.5625C39.5104 36.2292 39.6042 36.0625 39.6875 36.0625C40.5417 36.0625 41.0104 36.1667 41.0938 36.375C41.0938 36.5208 41.0417 36.8333 40.9375 37.3125C40.8542 37.7708 40.7396 38.2812 40.5938 38.8438C40.4688 39.3854 40.3333 39.8646 40.1875 40.2812C40.0417 40.6771 39.9167 40.8958 39.8125 40.9375C37.4375 41.7917 35.0938 42.2188 32.7812 42.2188Z" fill="#424242"/>
</svg>
