<svg width="64" height="64" viewBox="0 0 64 64" fill="none" xmlns="http://www.w3.org/2000/svg">
<rect width="64" height="64" fill="white"/>
<path d="M24.0619 7.77903C24.8174 5.70312 27.1128 4.63277 29.1887 5.38834L51.7413 13.5968C53.8172 14.3524 54.8876 16.6478 54.132 18.7237L40.4512 56.3114C39.6956 58.3873 37.4003 59.4576 35.3244 58.7021L12.7717 50.4936C10.6958 49.738 9.62548 47.4427 10.381 45.3667L24.0619 7.77903Z" fill="#DEDEDE"/>
<rect x="26.6253" y="6.58368" width="28" height="44" rx="3" transform="rotate(20 26.6253 6.58368)" fill="white"/>
<path d="M13.6682 52.4161C11.319 51.5611 10.1668 47.4171 10.1668 47.4171L39.248 58.0018C37.2359 59.5396 35.1775 60.1869 33.8716 59.7696L13.6682 52.4161Z" fill="#DEDEDE"/>
<path d="M19.8463 9.53686C20.2299 7.36128 22.3045 5.90861 24.4801 6.29222L48.1155 10.4598C50.2911 10.8434 51.7438 12.918 51.3601 15.0936L44.4142 54.4859C44.0306 56.6615 41.956 58.1142 39.7804 57.7305L16.145 53.563C13.9694 53.1794 12.5168 51.1047 12.9004 48.9292L19.8463 9.53686Z" fill="#BEBEBE"/>
<rect x="22.1632" y="7.91455" width="28" height="44" rx="3" transform="rotate(10 22.1632 7.91455)" fill="white"/>
<path d="M17.3617 55.3007C14.8997 54.8665 13.0455 50.9856 13.0455 50.9856L43.5229 56.3596C41.8084 58.2234 39.8936 59.2184 38.5351 59.0341L17.3617 55.3007Z" fill="#BEBEBE"/>
<path d="M16 12C16 9.79086 17.7909 8 20 8H44C46.2091 8 48 9.79086 48 12V52C48 54.2091 46.2091 56 44 56H20C17.7909 56 16 54.2091 16 52V12Z" fill="#808080"/>
<rect x="18" y="10" width="28" height="44" rx="3" fill="white"/>
<path d="M21.5 57.5C19 57.5 16.5 54 16.5 54H47.4476C46.0828 56.1332 44.3699 57.4456 43 57.5H21.5Z" fill="#808080"/>
<path d="M32.7812 42.2188C31.4062 42.2188 30.1146 41.9479 28.9062 41.4062C27.6979 40.8646 26.6354 40.125 25.7188 39.1875C24.8021 38.2292 24.0833 37.1354 23.5625 35.9062C23.0417 34.6562 22.7812 33.3333 22.7812 31.9375C22.7812 30.4583 23.0417 29.0729 23.5625 27.7812C24.0833 26.4688 24.8021 25.3229 25.7188 24.3438C26.6562 23.3438 27.75 22.5625 29 22C30.2708 21.4375 31.6354 21.1562 33.0938 21.1562C34.2396 21.1562 35.4062 21.2396 36.5938 21.4062C37.7812 21.5521 39 21.7708 40.25 22.0625C40.375 22.1042 40.5104 22.8021 40.6562 24.1562C40.7396 24.9271 40.8021 25.5312 40.8438 25.9688C40.9062 26.4062 40.8854 26.7188 40.7812 26.9062C40.6771 27.0729 40.4271 27.1562 40.0312 27.1562L39.5312 27.0625C39.4271 26.6875 39.2604 26.2917 39.0312 25.875C38.8021 25.4583 38.4479 25.0104 37.9688 24.5312C37.5104 24.0521 36.8646 23.6667 36.0312 23.375C35.1979 23.0625 34.2708 22.9062 33.25 22.9062C29.5208 22.9062 27.6562 25.6979 27.6562 31.2812C27.6562 33.0104 27.9062 34.5833 28.4062 36C28.9271 37.3958 29.6771 38.5 30.6562 39.3125C31.6562 40.125 32.8542 40.5312 34.25 40.5312C35.7917 40.5312 37.125 39.9688 38.25 38.8438C38.5833 38.5104 38.8333 38.1354 39 37.7188C39.1875 37.2812 39.3229 36.8958 39.4062 36.5625C39.5104 36.2292 39.6042 36.0625 39.6875 36.0625C40.5417 36.0625 41.0104 36.1667 41.0938 36.375C41.0938 36.5208 41.0417 36.8333 40.9375 37.3125C40.8542 37.7708 40.7396 38.2812 40.5938 38.8438C40.4688 39.3854 40.3333 39.8646 40.1875 40.2812C40.0417 40.6771 39.9167 40.8958 39.8125 40.9375C37.4375 41.7917 35.0938 42.2188 32.7812 42.2188Z" fill="#424242"/>
</svg>
